<?xml version="1.0" standalone="no"?>
<!DOCTYPE svg PUBLIC "-//W3C//DTD SVG 20010904//EN"
 "http://www.w3.org/TR/2001/REC-SVG-20010904/DTD/svg10.dtd">
<svg version="1.0" xmlns="http://www.w3.org/2000/svg"
 width="1801.000000pt" height="613.000000pt" viewBox="0 0 1801.000000 613.000000"
 preserveAspectRatio="xMidYMid meet">
<metadata>
idyllicsoftware
</metadata>
<g transform="translate(0.000000,613.000000) scale(0.100000,-0.100000)"
fill="#000000" stroke="none">
<path d="M30 5378 c0 -428 4 -738 9 -733 13 15 953 1448 958 1463 4 9 -96 12
-481 12 l-486 0 0 -742z" fill='#ec082b' />
<path d="M1730 4720 l0 -1390 220 0 220 0 0 1390 0 1390 -220 0 -220 0 0
-1390z" fill='#ec082b' />
<path d="M2965 6095 c-237 -54 -360 -180 -400 -409 -22 -131 -23 -1799 0
-1932 39 -227 176 -367 403 -410 69 -13 178 -15 714 -11 l633 3 105 26 c138
34 215 61 330 114 389 183 684 539 778 939 77 328 23 693 -145 976 -70 118
-132 195 -241 301 -196 191 -423 311 -722 386 l-105 26 -645 2 c-517 2 -657 0
-705 -11z m1240 -416 c436 -53 802 -362 896 -756 30 -122 29 -294 0 -418 -63
-266 -262 -501 -536 -635 -228 -112 -314 -122 -967 -118 l-476 3 -44 30 c-25
18 -52 49 -66 75 l-22 45 2 826 3 826 27 39 c28 40 69 70 116 84 42 13 963 12
1067 -1z" fill='#ec082b' />
<path d="M5830 5738 c1 -403 7 -467 54 -592 87 -230 275 -405 521 -487 66 -22
88 -23 388 -27 l317 -3 0 -650 0 -649 225 0 225 0 0 650 0 650 293 0 c256 0
302 3 374 20 325 78 571 352 613 682 5 45 10 239 10 430 l0 348 -225 0 -224 0
-3 -388 -3 -387 -33 -67 c-55 -113 -165 -196 -287 -219 -33 -6 -330 -9 -772
-7 -708 3 -719 3 -770 24 -111 46 -211 149 -245 253 -7 24 -13 164 -15 414
l-5 377 -219 0 -219 0 0 -372z" fill='#ec082b' />
<path d="M9190 5086 c0 -1093 0 -1088 49 -1230 90 -256 318 -452 596 -511 58
-12 188 -15 733 -15 l662 0 0 210 0 209 -648 3 -648 3 -76 37 c-91 45 -147
103 -191 196 l-32 67 -3 1028 -2 1027 -220 0 -220 0 0 -1024z" fill='#ec082b' />
<path d="M11530 5086 c0 -1093 0 -1088 49 -1230 89 -254 310 -445 591 -511 55
-12 172 -15 733 -15 l667 0 0 210 0 209 -648 3 -648 3 -76 37 c-91 45 -147
103 -191 196 l-32 67 -3 1028 -2 1027 -220 0 -220 0 0 -1024z" fill='#ec082b' />
<path d="M13870 4720 l0 -1390 220 0 220 0 0 1390 0 1390 -220 0 -220 0 0
-1390z" fill='#ec082b' />
<path d="M15341 6099 c-73 -14 -141 -39 -226 -82 -62 -32 -102 -63 -176 -137
-132 -131 -203 -259 -235 -427 -21 -110 -21 -1356 0 -1466 32 -168 103 -296
235 -428 82 -82 110 -103 191 -142 176 -87 111 -81 1030 -85 567 -2 835 1 880
8 89 16 223 68 295 115 77 51 180 153 234 233 88 130 129 261 138 435 l6 117
-225 0 -226 0 -4 -97 c-3 -84 -8 -108 -35 -165 -40 -85 -105 -151 -191 -191
l-67 -32 -728 -3 c-473 -2 -748 1 -785 8 -124 23 -220 98 -279 218 l-38 76 0
665 0 666 31 66 c56 118 145 194 261 224 54 14 155 15 800 13 l738 -3 67 -32
c82 -38 148 -104 190 -187 27 -53 32 -74 36 -163 l5 -103 225 0 225 0 -6 118
c-12 231 -88 405 -246 562 -111 110 -218 170 -380 211 -70 18 -119 19 -885 18
-446 -1 -831 -5 -855 -10z" fill='#ec082b' />
<path d="M903 5413 c-55 -87 -260 -405 -454 -708 -194 -302 -353 -559 -353
-570 0 -11 148 -245 329 -520 180 -275 386 -588 457 -695 l128 -195 0 1423 c0
782 -1 1422 -3 1422 -2 0 -49 -71 -104 -157z" fill='#ec082b' />
<path d="M30 2133 c0 -805 3 -1463 8 -1463 4 1 38 51 77 113 38 62 247 389
464 727 217 338 396 622 398 630 3 12 -865 1350 -931 1435 -14 18 -15 -123
-16 -1442z" fill='#ec082b' />
<path d="M2091 1629 c-130 -25 -267 -132 -326 -253 -91 -185 -62 -389 75 -539
56 -61 106 -95 193 -130 50 -21 70 -22 554 -27 l501 -5 44 -31 c65 -48 90
-103 86 -190 -4 -90 -36 -141 -111 -179 l-51 -25 -613 0 -613 0 0 -125 0 -126
653 3 652 3 68 32 c160 76 267 247 267 428 0 225 -162 424 -379 465 -31 6
-238 10 -498 10 -484 0 -485 0 -546 58 -94 89 -94 235 0 324 62 59 47 58 703
58 l600 0 0 130 0 130 -607 -1 c-335 -1 -628 -5 -652 -10z" />
<path d="M4050 1633 c-46 -8 -125 -35 -160 -56 -57 -34 -148 -127 -179 -181
-59 -104 -61 -120 -61 -582 0 -462 2 -483 63 -586 39 -67 138 -155 214 -191
l68 -32 535 0 535 0 65 32 c119 59 205 154 253 281 21 56 22 68 22 497 0 428
-1 442 -22 497 -62 165 -203 288 -362 318 -51 10 -916 12 -971 3z m991 -288
c24 -17 57 -53 74 -80 l30 -48 3 -356 c2 -196 1 -380 -3 -408 -9 -72 -55 -140
-120 -175 l-50 -28 -443 0 c-488 0 -484 0 -551 63 -71 67 -71 67 -71 502 0
430 1 434 66 498 69 69 50 67 561 64 l461 -2 43 -30z"/>
<path d="M5993 1625 c-77 -21 -112 -38 -169 -81 -92 -70 -146 -147 -178 -253
-14 -48 -16 -134 -16 -673 l0 -618 130 0 130 0 0 365 0 365 640 0 640 0 0 130
0 130 -641 0 -641 0 4 123 c3 113 5 125 30 164 17 26 49 55 80 73 l53 30 558
0 557 0 0 130 0 130 -562 -1 c-450 0 -573 -3 -615 -14z"/>
<path d="M7250 1510 l0 -130 375 0 375 0 0 -690 0 -690 130 0 130 0 0 690 0
690 375 0 375 0 0 130 0 130 -880 0 -880 0 0 -130z" />
<path d="M9130 1042 c0 -387 4 -619 11 -658 26 -144 129 -279 264 -345 l70
-34 440 0 440 0 65 32 c36 17 83 47 105 66 l39 34 51 -40 c27 -22 75 -52 105
-66 l55 -26 440 0 440 0 70 34 c84 41 181 134 219 209 56 110 56 114 56 779
l0 613 -130 0 -130 0 0 -592 c0 -367 -4 -607 -10 -629 -15 -52 -49 -99 -98
-134 l-44 -30 -361 -3 -362 -2 -50 29 c-28 16 -64 48 -80 72 l-30 42 -5 621
-5 621 -127 3 -127 3 -3 -613 -3 -613 -27 -47 c-31 -51 -66 -83 -117 -104 -48
-20 -706 -21 -754 -1 -47 20 -95 64 -120 111 -22 41 -22 44 -25 654 l-3 612
-129 0 -130 0 0 -598z"/>
<path d="M12590 1629 c-120 -23 -259 -130 -315 -240 -55 -107 -55 -105 -55
-771 l0 -618 130 0 130 0 0 365 0 365 615 0 615 0 0 -365 0 -365 135 0 136 0
-3 623 -3 622 -23 64 c-44 122 -131 225 -234 277 -100 51 -138 54 -628 53
-250 -1 -475 -5 -500 -10z m1018 -282 c23 -15 54 -46 69 -69 26 -39 28 -50 31
-165 l4 -123 -616 0 -616 0 -2 53 c-7 187 23 266 125 316 41 21 51 21 503 19
l460 -3 42 -28z" />
<path d="M14564 1625 c-156 -34 -280 -146 -341 -311 l-26 -69 -5 -622 -4 -623
136 0 136 0 0 335 0 335 543 -2 543 -3 42 -28 c23 -15 54 -46 69 -69 l28 -41
3 -264 3 -263 134 0 135 0 0 223 c0 122 -5 253 -10 291 -13 86 -52 175 -107
243 l-42 51 21 19 c59 53 111 161 128 268 38 237 -136 484 -378 534 -80 17
-928 13 -1008 -4z m1011 -273 c28 -15 62 -45 80 -70 28 -40 30 -50 30 -127 0
-76 -2 -87 -30 -126 -19 -27 -50 -54 -84 -71 l-53 -28 -529 0 -529 0 0 143 0
143 33 54 c24 41 45 62 82 82 l50 28 450 0 450 0 50 -28z"/>
<path d="M16535 1626 c-167 -42 -294 -159 -346 -317 -24 -74 -24 -77 -24 -499
0 -418 1 -426 23 -489 48 -132 132 -228 252 -285 l65 -31 633 -3 632 -3 0 125
0 126 -598 2 -598 3 -42 28 c-23 15 -54 46 -69 69 -27 41 -28 45 -31 210 l-3
168 635 0 636 0 0 130 0 130 -634 0 -633 0 -7 65 c-13 127 12 217 76 270 66
56 53 55 648 55 l550 0 0 130 0 130 -557 -1 c-412 0 -571 -4 -608 -13z"/>
<path d="M913 1458 c-48 -73 -251 -383 -451 -688 -201 -305 -380 -578 -399
-607 -27 -43 -33 -62 -33 -108 l0 -55 490 0 490 0 0 795 c0 437 -2 795 -5 795
-3 0 -45 -60 -92 -132z" fill='#ec082b' />
</g>
</svg>
